<svg width="27" height="27" viewBox="0 0 27 27" fill="none" xmlns="http://www.w3.org/2000/svg">
<path d="M13.6733 12.2758C13.565 12.265 13.435 12.265 13.3158 12.2758C10.7375 12.1891 8.69 10.0766 8.69 7.47663C8.69 4.82246 10.835 2.66663 13.5 2.66663C16.1542 2.66663 18.31 4.82246 18.31 7.47663C18.2992 10.0766 16.2517 12.1891 13.6733 12.2758Z" stroke="white" stroke-width="1.5" stroke-linecap="round" stroke-linejoin="round"/>
<path d="M8.25667 16.2734C5.635 18.0284 5.635 20.8884 8.25667 22.6325C11.2358 24.6259 16.1217 24.6259 19.1008 22.6325C21.7225 20.8775 21.7225 18.0175 19.1008 16.2734C16.1325 14.2909 11.2467 14.2909 8.25667 16.2734Z" stroke="white" stroke-width="1.5" stroke-linecap="round" stroke-linejoin="round"/>
</svg>
