<svg width="27" height="27" viewBox="0 0 27 27" fill="none" xmlns="http://www.w3.org/2000/svg">
<path d="M23.25 24.3334H3.75C3.30583 24.3334 2.9375 23.965 2.9375 23.5209C2.9375 23.0767 3.30583 22.7084 3.75 22.7084H23.25C23.6942 22.7084 24.0625 23.0767 24.0625 23.5209C24.0625 23.965 23.6942 24.3334 23.25 24.3334Z" fill="white"/>
<path d="M21.105 4.26997C19.0033 2.1683 16.945 2.11413 14.7892 4.26997L13.4783 5.5808C13.37 5.68913 13.3267 5.86247 13.37 6.01413C14.1933 8.88497 16.49 11.1816 19.3608 12.005C19.4042 12.0158 19.4475 12.0266 19.4908 12.0266C19.61 12.0266 19.7183 11.9833 19.805 11.8966L21.105 10.5858C22.1775 9.52413 22.6975 8.49497 22.6975 7.45497C22.7083 6.38247 22.1883 5.34247 21.105 4.26997Z" fill="white"/>
<path d="M17.4108 12.9909C17.0967 12.8392 16.7933 12.6875 16.5008 12.5142C16.2625 12.3734 16.035 12.2217 15.8075 12.0592C15.6233 11.94 15.4067 11.7667 15.2008 11.5934C15.1792 11.5825 15.1033 11.5175 15.0167 11.4309C14.6592 11.1275 14.2583 10.7375 13.9008 10.3042C13.8683 10.2825 13.8142 10.2067 13.7383 10.1092C13.63 9.9792 13.4458 9.76253 13.2833 9.51337C13.1533 9.35087 13.0017 9.11253 12.8608 8.8742C12.6875 8.5817 12.5358 8.2892 12.3842 7.98587C12.3518 7.91658 12.321 7.84778 12.2914 7.77958C12.1463 7.44518 11.7112 7.34797 11.4535 7.60573L5.20167 13.8575C5.06083 13.9984 4.93083 14.2692 4.89833 14.4534L4.31333 18.6025C4.205 19.3392 4.41083 20.0325 4.86583 20.4984C5.25583 20.8775 5.7975 21.0834 6.3825 21.0834C6.5125 21.0834 6.6425 21.0725 6.7725 21.0509L10.9325 20.4659C11.1275 20.4334 11.3983 20.3034 11.5283 20.1625L17.773 13.9179C18.0325 13.6583 17.9344 13.2134 17.5964 13.0704C17.5355 13.0446 17.4738 13.0182 17.4108 12.9909Z" fill="white"/>
</svg>
